<svg xmlns="http://www.w3.org/2000/svg" xmlns:xlink="http://www.w3.org/1999/xlink" viewBox="0 0 420 64" width="420" height="64" role="img" aria-label="Warp 2: dash"><title>Warp 2: dash</title><desc>A short animated transition between chapters: dash.</desc><defs><linearGradient id="amb" x1="0" y1="0" x2="420" y2="0" gradientUnits="userSpaceOnUse"><stop offset="0" stop-color="#9D4EFF"/><stop offset="0.5" stop-color="#9A5BC8"/><stop offset="1" stop-color="#39FF14"/></linearGradient><linearGradient id="ambv" x1="0" y1="0" x2="0" y2="1"><stop offset="0" stop-color="#9D4EFF"/><stop offset="1" stop-color="#39FF14"/></linearGradient><path id="t0" d="M125 125V250H0V1000H250V500H375V1000H500V500H625V1000H875V250H750V125H625V250H500V375H375V250H250V125Z"/><path id="t1" d="M125 125V250H0V875H125V1000H750V875H875V250H750V125ZM250 250H625V875H250Z"/><path id="t2" d="M0 125V1000H750V875H875V500H625V375H750V250H875V125H500V250H375V375H250V125ZM250 500H500V625H625V875H250Z"/><path id="t3" d="M125 125V1000H375V250H875V125Z"/><path id="t4" d="M0 125V1000H625V875H750V750H875V375H750V250H625V125ZM250 250H500V375H625V750H500V875H250Z"/><path id="t5" d="M0 125V1000H250V875H375V750H500V875H625V1000H875V125H625V625H500V375H375V625H250V125Z"/><path id="t6" d="M0 125V750H125V875H250V1000H625V875H750V750H875V125H625V375H250V125ZM250 500H625V750H500V875H375V750H250Z"/><path id="t7" d="M0 125V1000H750V875H875V500H750V375H250V125ZM250 500H625V875H250Z"/><clipPath id="q0"><rect x="0" y="25" width="420" height="14"/></clipPath><radialGradient id="q1"><stop offset="0" stop-color="#9D4EFF" stop-opacity="0.22"/><stop offset="0.55" stop-color="#9D4EFF" stop-opacity="0.0836"/><stop offset="1" stop-color="#9D4EFF" stop-opacity="0"/></radialGradient><radialGradient id="q2"><stop offset="0" stop-color="#00E68A" stop-opacity="0.14"/><stop offset="0.55" stop-color="#00E68A" stop-opacity="0.0532"/><stop offset="1" stop-color="#00E68A" stop-opacity="0"/></radialGradient><linearGradient id="q3" x1="0" y1="0" x2="0" y2="1"><stop offset="0" stop-color="#9D4EFF" stop-opacity="0"/><stop offset="0.8" stop-color="#9D4EFF" stop-opacity="1"/><stop offset="1" stop-color="#FFFFFF" stop-opacity="1"/></linearGradient><linearGradient id="q4" x1="0" y1="0" x2="0" y2="1"><stop offset="0" stop-color="#39FF14" stop-opacity="0"/><stop offset="0.8" stop-color="#39FF14" stop-opacity="1"/><stop offset="1" stop-color="#FFFFFF" stop-opacity="1"/></linearGradient><pattern id="q5" width="4" height="3" patternUnits="userSpaceOnUse"><rect width="4" height="1" fill="#000"/></pattern><radialGradient id="q6" cx="0.5" cy="0.5" r="0.75"><stop offset="0.55" stop-color="#04060A" stop-opacity="0"/><stop offset="1" stop-color="#04060A" stop-opacity="0.75"/></radialGradient></defs><rect width="420" height="64" fill="#04060A"/><style>@keyframes w0{0%{transform:translate(-1320px,0)}100%{transform:translate(0,0)}}@keyframes w1{0%{transform:translate(-192px,0)}4.17%{transform:translate(-184px,0)}5%{transform:translate(-178px,0)}5.83%{transform:translate(-172px,0)}6.67%{transform:translate(-166px,0)}7.5%{transform:translate(-160px,0)}8.33%{transform:translate(-152px,0)}9.17%{transform:translate(-146px,0)}10%{transform:translate(-140px,0)}10.83%{transform:translate(-134px,0)}11.67%{transform:translate(-128px,0)}12.5%{transform:translate(-122px,0)}13.33%{transform:translate(-114px,0)}14.17%{transform:translate(-108px,0)}15%{transform:translate(-102px,0)}15.83%{transform:translate(-96px,0)}16.67%{transform:translate(-90px,0)}17.5%{transform:translate(-82px,0)}18.33%{transform:translate(-76px,0)}19.17%{transform:translate(-70px,0)}20%{transform:translate(-64px,0)}20.83%{transform:translate(-58px,0)}21.67%{transform:translate(-50px,0)}22.5%{transform:translate(-44px,0)}23.33%{transform:translate(-38px,0)}24.17%{transform:translate(-32px,0)}25%{transform:translate(-26px,0)}25.83%{transform:translate(-20px,0)}26.67%{transform:translate(-12px,0)}27.5%{transform:translate(-6px,0)}28.33%,40%,60%{transform:translate(0,0)}30%,50%{transform:translate(0,-2px)}62.5%{transform:translate(12px,0)}63.33%{transform:translate(24px,0)}64.17%{transform:translate(36px,0)}65%{transform:translate(48px,0)}65.83%{transform:translate(60px,0)}66.67%{transform:translate(72px,0)}67.5%{transform:translate(84px,0)}68.33%{transform:translate(96px,0)}69.17%{transform:translate(106px,0)}70%{transform:translate(118px,0)}70.83%{transform:translate(130px,0)}71.67%{transform:translate(142px,0)}72.5%{transform:translate(154px,0)}73.33%{transform:translate(166px,0)}74.17%{transform:translate(178px,0)}75%{transform:translate(190px,0)}75.83%{transform:translate(202px,0)}76.67%{transform:translate(214px,0)}77.5%{transform:translate(226px,0)}78.33%{transform:translate(238px,0)}79.17%{transform:translate(250px,0)}80%{transform:translate(262px,0)}80.83%{transform:translate(274px,0)}81.67%{transform:translate(286px,0)}82.5%{transform:translate(296px,0)}83.33%,100%{transform:translate(308px,0)}90%{transform:translate(308px,-2px)}}@keyframes w2{0%,28.33%,83.33%{opacity:1}3.33%,61.67%,100%{opacity:0}}@keyframes w3{0%,5.67%,10.33%,15%,19.67%,24.33%,28.33%,64%,68.67%,73.33%,78%,82.67%{opacity:0}3.33%,8%,12.67%,17.33%,22%,26.67%,61.67%,66.33%,71%,75.67%,80.33%{opacity:1}}@keyframes w4{0%,8%,12.67%,17.33%,22%,26.67%,66.33%,71%,75.67%,80.33%,83.33%{opacity:0}5.67%,10.33%,15%,19.67%,24.33%,64%,68.67%,73.33%,78%,82.67%{opacity:1}}@keyframes w5{0%,56.67%{opacity:1}32.5%,100%{opacity:0}}@keyframes w6{0%,36.17%,43.5%,50.83%,56.67%{opacity:0}32.5%,39.83%,47.17%,54.5%{opacity:1}}@keyframes w7{0%,39.83%,47.17%,54.5%{opacity:0}36.17%,43.5%,50.83%{opacity:1}}@keyframes w8{0%,52.33%{opacity:1}50%,100%{opacity:0}}@keyframes w9{0%,50%,100%{opacity:0.15}25%,75%{opacity:0.55}}@keyframes wa{0%,3.17%,99.83%,100%{opacity:0;transform:translate(-191.2px,0)}3.33%{opacity:1;transform:translate(-191.2px,0)}28.33%,61.67%{opacity:1;transform:translate(0,0)}32.5%,61.5%{opacity:0;transform:translate(0,0)}83.33%{opacity:1;transform:translate(308.8px,0)}83.5%{opacity:0;transform:translate(308.8px,0)}}@keyframes wb{0%,28.17%,40.17%,100%{opacity:0;transform:translate(0,0) scale(1)}28.33%{opacity:1;transform:translate(0,0) scale(1)}40%{opacity:0;transform:translate(17.7px,2.7px) scale(0.2)}}@keyframes wc{0%,28.17%,40.17%,100%{opacity:0;transform:translate(0,0) scale(1)}28.33%{opacity:1;transform:translate(0,0) scale(1)}40%{opacity:0;transform:translate(9.5px,21.3px) scale(0.2)}}@keyframes wd{0%,28.17%,40.17%,100%{opacity:0;transform:translate(0,0) scale(1)}28.33%{opacity:1;transform:translate(0,0) scale(1)}40%{opacity:0;transform:translate(-4.5px,19.8px) scale(0.2)}}@keyframes we{0%,28.17%,40.17%,100%{opacity:0;transform:translate(0,0) scale(1)}28.33%{opacity:1;transform:translate(0,0) scale(1)}40%{opacity:0;transform:translate(-22.5px,13.9px) scale(0.2)}}@keyframes wf{0%,28.17%,40.17%,100%{opacity:0;transform:translate(0,0) scale(1)}28.33%{opacity:1;transform:translate(0,0) scale(1)}40%{opacity:0;transform:translate(-20px,-7px) scale(0.2)}}@keyframes wg{0%,28.17%,40.17%,100%{opacity:0;transform:translate(0,0) scale(1)}28.33%{opacity:1;transform:translate(0,0) scale(1)}40%{opacity:0;transform:translate(-17px,-19.1px) scale(0.2)}}@keyframes wh{0%,28.17%,40.17%,100%{opacity:0;transform:translate(0,0) scale(1)}28.33%{opacity:1;transform:translate(0,0) scale(1)}40%{opacity:0;transform:translate(6.2px,-23.2px) scale(0.2)}}@keyframes wi{0%,28.17%,40.17%,100%{opacity:0;transform:translate(0,0) scale(1)}28.33%{opacity:1;transform:translate(0,0) scale(1)}40%{opacity:0;transform:translate(13.2px,-6.7px) scale(0.2)}}@keyframes wj{0%,8.33%,16.67%,25%,33.33%,41.67%,50%,58.33%,66.67%,75%,83.33%,91.67%{opacity:0.35}4.17%,12.5%,20.83%,29.17%,37.5%,45.83%,54.17%,62.5%,70.83%,79.17%,87.5%,95.83%{opacity:1}}@keyframes wk{0%,25%,50%,75%{opacity:1;transform:translate(0,-46px)}15.29%,40.29%,65.29%,90.29%{opacity:1;transform:translate(0,110px)}15.46%,40.46%,65.46%,90.46%{opacity:0;transform:translate(0,110px)}15.63%,40.63%,65.63%,90.63%,100%{opacity:0;transform:translate(0,-46px)}}@keyframes wl{0%,28.13%,53.13%,78.13%,100%{opacity:0;transform:translate(0,-46px)}12.5%,37.5%,62.5%,84.37%{opacity:1;transform:translate(0,-46px)}27.79%,52.79%,77.79%,99.67%{opacity:1;transform:translate(0,110px)}27.96%,52.96%,77.96%,99.83%{opacity:0;transform:translate(0,110px)}}.w0{animation:w0 6s linear infinite;transform-origin:0 0}.w1{animation:w1 6s step-end infinite;transform-origin:0 0}.w2{animation:w2 6s step-end infinite}.w3{opacity:0;animation:w3 6s step-end infinite}.w4{opacity:0;animation:w4 6s step-end infinite}.w5{animation:w5 6s step-end infinite}.w6{opacity:0;animation:w6 6s step-end infinite}.w7{opacity:0;animation:w7 6s step-end infinite}.w8{animation:w8 6s step-end infinite}.w9{animation:w9 6s ease-in-out infinite}.wa{opacity:0;animation:wa 6s linear infinite;transform-origin:0 0}.wb{opacity:0;animation:wb 6s cubic-bezier(0.1,0.8,0.3,1) infinite;transform-origin:0 0}.wc{opacity:0;animation:wc 6s cubic-bezier(0.1,0.8,0.3,1) infinite;transform-origin:0 0}.wd{opacity:0;animation:wd 6s cubic-bezier(0.1,0.8,0.3,1) infinite;transform-origin:0 0}.we{opacity:0;animation:we 6s cubic-bezier(0.1,0.8,0.3,1) infinite;transform-origin:0 0}.wf{opacity:0;animation:wf 6s cubic-bezier(0.1,0.8,0.3,1) infinite;transform-origin:0 0}.wg{opacity:0;animation:wg 6s cubic-bezier(0.1,0.8,0.3,1) infinite;transform-origin:0 0}.wh{opacity:0;animation:wh 6s cubic-bezier(0.1,0.8,0.3,1) infinite;transform-origin:0 0}.wi{opacity:0;animation:wi 6s cubic-bezier(0.1,0.8,0.3,1) infinite;transform-origin:0 0}.wj{animation:wj 6s step-end infinite}.wk{opacity:0;animation:wk 6s linear infinite;transform-origin:0 0}.wl{opacity:0;animation:wl 6s linear infinite;transform-origin:0 0}@media (prefers-reduced-motion:reduce){*{animation:none!important}}</style><rect x="-105" y="-22.4" width="378" height="70.4" fill="url(#q1)"/><rect x="168" y="19.2" width="378" height="64" fill="url(#q2)"/><rect x="9" y="0" width="6" height="64" fill="#9D4EFF" opacity="0.06"/><rect x="11.5" y="0" width="1" height="64" fill="#9D4EFF" opacity="0.45"/><rect x="405" y="0" width="6" height="64" fill="#39FF14" opacity="0.06"/><rect x="407.5" y="0" width="1" height="64" fill="#39FF14" opacity="0.45"/><g transform="translate(12 0)"><g class="wk"><rect x="-3" y="-46" width="6" height="46" rx="3" fill="url(#q3)" opacity="0.35"/><rect x="-1" y="-46" width="2" height="46" fill="url(#q3)"/></g></g><g transform="translate(408 0)"><g class="wl"><rect x="-3" y="-46" width="6" height="46" rx="3" fill="url(#q4)" opacity="0.35"/><rect x="-1" y="-46" width="2" height="46" fill="url(#q4)"/></g></g><g opacity="0.5"><g clip-path="url(#q0)"><g transform="translate(0 25)"><g class="w0"><g transform="translate(0 0)"><path d="M0 0l7 7l-7 7" fill="none" stroke="#5B21B6" stroke-width="2"/><path d="M22 0l7 7l-7 7" fill="none" stroke="#5B21B6" stroke-width="2"/><path d="M44 0l7 7l-7 7" fill="none" stroke="#5B21B6" stroke-width="2"/><path d="M66 0l7 7l-7 7" fill="none" stroke="#5B21B6" stroke-width="2"/><path d="M88 0l7 7l-7 7" fill="none" stroke="#5B21B6" stroke-width="2"/><path d="M110 0l7 7l-7 7" fill="none" stroke="#5B21B6" stroke-width="2"/><path d="M132 0l7 7l-7 7" fill="none" stroke="#5B21B6" stroke-width="2"/><path d="M154 0l7 7l-7 7" fill="none" stroke="#5B21B6" stroke-width="2"/><path d="M176 0l7 7l-7 7" fill="none" stroke="#5B21B6" stroke-width="2"/><path d="M198 0l7 7l-7 7" fill="none" stroke="#5B21B6" stroke-width="2"/><path d="M220 0l7 7l-7 7" fill="none" stroke="#5B21B6" stroke-width="2"/><path d="M242 0l7 7l-7 7" fill="none" stroke="#5B21B6" stroke-width="2"/><path d="M264 0l7 7l-7 7" fill="none" stroke="#5B21B6" stroke-width="2"/><path d="M286 0l7 7l-7 7" fill="none" stroke="#5B21B6" stroke-width="2"/><path d="M308 0l7 7l-7 7" fill="none" stroke="#5B21B6" stroke-width="2"/><path d="M330 0l7 7l-7 7" fill="none" stroke="#5B21B6" stroke-width="2"/><path d="M352 0l7 7l-7 7" fill="none" stroke="#5B21B6" stroke-width="2"/><path d="M374 0l7 7l-7 7" fill="none" stroke="#5B21B6" stroke-width="2"/><path d="M396 0l7 7l-7 7" fill="none" stroke="#5B21B6" stroke-width="2"/><path d="M418 0l7 7l-7 7" fill="none" stroke="#5B21B6" stroke-width="2"/></g><g transform="translate(440 0)"><path d="M0 0l7 7l-7 7" fill="none" stroke="#5B21B6" stroke-width="2"/><path d="M22 0l7 7l-7 7" fill="none" stroke="#5B21B6" stroke-width="2"/><path d="M44 0l7 7l-7 7" fill="none" stroke="#5B21B6" stroke-width="2"/><path d="M66 0l7 7l-7 7" fill="none" stroke="#5B21B6" stroke-width="2"/><path d="M88 0l7 7l-7 7" fill="none" stroke="#5B21B6" stroke-width="2"/><path d="M110 0l7 7l-7 7" fill="none" stroke="#5B21B6" stroke-width="2"/><path d="M132 0l7 7l-7 7" fill="none" stroke="#5B21B6" stroke-width="2"/><path d="M154 0l7 7l-7 7" fill="none" stroke="#5B21B6" stroke-width="2"/><path d="M176 0l7 7l-7 7" fill="none" stroke="#5B21B6" stroke-width="2"/><path d="M198 0l7 7l-7 7" fill="none" stroke="#5B21B6" stroke-width="2"/><path d="M220 0l7 7l-7 7" fill="none" stroke="#5B21B6" stroke-width="2"/><path d="M242 0l7 7l-7 7" fill="none" stroke="#5B21B6" stroke-width="2"/><path d="M264 0l7 7l-7 7" fill="none" stroke="#5B21B6" stroke-width="2"/><path d="M286 0l7 7l-7 7" fill="none" stroke="#5B21B6" stroke-width="2"/><path d="M308 0l7 7l-7 7" fill="none" stroke="#5B21B6" stroke-width="2"/><path d="M330 0l7 7l-7 7" fill="none" stroke="#5B21B6" stroke-width="2"/><path d="M352 0l7 7l-7 7" fill="none" stroke="#5B21B6" stroke-width="2"/><path d="M374 0l7 7l-7 7" fill="none" stroke="#5B21B6" stroke-width="2"/><path d="M396 0l7 7l-7 7" fill="none" stroke="#5B21B6" stroke-width="2"/><path d="M418 0l7 7l-7 7" fill="none" stroke="#5B21B6" stroke-width="2"/></g><g transform="translate(880 0)"><path d="M0 0l7 7l-7 7" fill="none" stroke="#5B21B6" stroke-width="2"/><path d="M22 0l7 7l-7 7" fill="none" stroke="#5B21B6" stroke-width="2"/><path d="M44 0l7 7l-7 7" fill="none" stroke="#5B21B6" stroke-width="2"/><path d="M66 0l7 7l-7 7" fill="none" stroke="#5B21B6" stroke-width="2"/><path d="M88 0l7 7l-7 7" fill="none" stroke="#5B21B6" stroke-width="2"/><path d="M110 0l7 7l-7 7" fill="none" stroke="#5B21B6" stroke-width="2"/><path d="M132 0l7 7l-7 7" fill="none" stroke="#5B21B6" stroke-width="2"/><path d="M154 0l7 7l-7 7" fill="none" stroke="#5B21B6" stroke-width="2"/><path d="M176 0l7 7l-7 7" fill="none" stroke="#5B21B6" stroke-width="2"/><path d="M198 0l7 7l-7 7" fill="none" stroke="#5B21B6" stroke-width="2"/><path d="M220 0l7 7l-7 7" fill="none" stroke="#5B21B6" stroke-width="2"/><path d="M242 0l7 7l-7 7" fill="none" stroke="#5B21B6" stroke-width="2"/><path d="M264 0l7 7l-7 7" fill="none" stroke="#5B21B6" stroke-width="2"/><path d="M286 0l7 7l-7 7" fill="none" stroke="#5B21B6" stroke-width="2"/><path d="M308 0l7 7l-7 7" fill="none" stroke="#5B21B6" stroke-width="2"/><path d="M330 0l7 7l-7 7" fill="none" stroke="#5B21B6" stroke-width="2"/><path d="M352 0l7 7l-7 7" fill="none" stroke="#5B21B6" stroke-width="2"/><path d="M374 0l7 7l-7 7" fill="none" stroke="#5B21B6" stroke-width="2"/><path d="M396 0l7 7l-7 7" fill="none" stroke="#5B21B6" stroke-width="2"/><path d="M418 0l7 7l-7 7" fill="none" stroke="#5B21B6" stroke-width="2"/></g><g transform="translate(1320 0)"><path d="M0 0l7 7l-7 7" fill="none" stroke="#5B21B6" stroke-width="2"/><path d="M22 0l7 7l-7 7" fill="none" stroke="#5B21B6" stroke-width="2"/><path d="M44 0l7 7l-7 7" fill="none" stroke="#5B21B6" stroke-width="2"/><path d="M66 0l7 7l-7 7" fill="none" stroke="#5B21B6" stroke-width="2"/><path d="M88 0l7 7l-7 7" fill="none" stroke="#5B21B6" stroke-width="2"/><path d="M110 0l7 7l-7 7" fill="none" stroke="#5B21B6" stroke-width="2"/><path d="M132 0l7 7l-7 7" fill="none" stroke="#5B21B6" stroke-width="2"/><path d="M154 0l7 7l-7 7" fill="none" stroke="#5B21B6" stroke-width="2"/><path d="M176 0l7 7l-7 7" fill="none" stroke="#5B21B6" stroke-width="2"/><path d="M198 0l7 7l-7 7" fill="none" stroke="#5B21B6" stroke-width="2"/><path d="M220 0l7 7l-7 7" fill="none" stroke="#5B21B6" stroke-width="2"/><path d="M242 0l7 7l-7 7" fill="none" stroke="#5B21B6" stroke-width="2"/><path d="M264 0l7 7l-7 7" fill="none" stroke="#5B21B6" stroke-width="2"/><path d="M286 0l7 7l-7 7" fill="none" stroke="#5B21B6" stroke-width="2"/><path d="M308 0l7 7l-7 7" fill="none" stroke="#5B21B6" stroke-width="2"/><path d="M330 0l7 7l-7 7" fill="none" stroke="#5B21B6" stroke-width="2"/><path d="M352 0l7 7l-7 7" fill="none" stroke="#5B21B6" stroke-width="2"/><path d="M374 0l7 7l-7 7" fill="none" stroke="#5B21B6" stroke-width="2"/><path d="M396 0l7 7l-7 7" fill="none" stroke="#5B21B6" stroke-width="2"/><path d="M418 0l7 7l-7 7" fill="none" stroke="#5B21B6" stroke-width="2"/></g><g transform="translate(1760 0)"><path d="M0 0l7 7l-7 7" fill="none" stroke="#5B21B6" stroke-width="2"/><path d="M22 0l7 7l-7 7" fill="none" stroke="#5B21B6" stroke-width="2"/><path d="M44 0l7 7l-7 7" fill="none" stroke="#5B21B6" stroke-width="2"/><path d="M66 0l7 7l-7 7" fill="none" stroke="#5B21B6" stroke-width="2"/><path d="M88 0l7 7l-7 7" fill="none" stroke="#5B21B6" stroke-width="2"/><path d="M110 0l7 7l-7 7" fill="none" stroke="#5B21B6" stroke-width="2"/><path d="M132 0l7 7l-7 7" fill="none" stroke="#5B21B6" stroke-width="2"/><path d="M154 0l7 7l-7 7" fill="none" stroke="#5B21B6" stroke-width="2"/><path d="M176 0l7 7l-7 7" fill="none" stroke="#5B21B6" stroke-width="2"/><path d="M198 0l7 7l-7 7" fill="none" stroke="#5B21B6" stroke-width="2"/><path d="M220 0l7 7l-7 7" fill="none" stroke="#5B21B6" stroke-width="2"/><path d="M242 0l7 7l-7 7" fill="none" stroke="#5B21B6" stroke-width="2"/><path d="M264 0l7 7l-7 7" fill="none" stroke="#5B21B6" stroke-width="2"/><path d="M286 0l7 7l-7 7" fill="none" stroke="#5B21B6" stroke-width="2"/><path d="M308 0l7 7l-7 7" fill="none" stroke="#5B21B6" stroke-width="2"/><path d="M330 0l7 7l-7 7" fill="none" stroke="#5B21B6" stroke-width="2"/><path d="M352 0l7 7l-7 7" fill="none" stroke="#5B21B6" stroke-width="2"/><path d="M374 0l7 7l-7 7" fill="none" stroke="#5B21B6" stroke-width="2"/><path d="M396 0l7 7l-7 7" fill="none" stroke="#5B21B6" stroke-width="2"/><path d="M418 0l7 7l-7 7" fill="none" stroke="#5B21B6" stroke-width="2"/></g></g></g></g></g><rect x="26" y="52" width="368" height="1" fill="#1B2A22"/><g transform="translate(151.2 20)"><g class="w1"><circle class="w9" cx="13" cy="1" r="4.4" fill="#39FF14" opacity="0.35"/><path fill="#39FF14" d="M12 0h2v2h-2z"/><path fill="#140A26" d="M12 2h2v2h-2zM4 4h18v2h-18zM2 6h2v2h-2zM22 6h2v2h-2zM2 8h2v2h-2zM22 8h2v2h-2zM2 10h2v2h-2zM22 10h2v2h-2zM2 12h2v2h-2zM22 12h2v2h-2zM2 14h2v2h-2zM22 14h2v2h-2zM2 16h2v2h-2zM22 16h2v2h-2zM2 18h2v2h-2zM22 18h2v2h-2zM4 20h18v2h-18zM4 22h2v2h-2zM20 22h2v2h-2zM4 24h2v2h-2zM20 24h2v2h-2zM6 26h14v2h-14z"/><path fill="#C99EFF" d="M4 6h4v2h-4z"/><path fill="#9D4EFF" d="M8 6h14v2h-14zM4 8h2v2h-2zM20 8h2v2h-2zM4 10h2v2h-2zM20 10h2v2h-2zM4 12h2v2h-2zM20 12h2v2h-2zM4 14h2v2h-2zM20 14h2v2h-2zM4 16h2v2h-2zM20 16h2v2h-2zM6 18h14v2h-14zM6 22h6v2h-6zM14 22h6v2h-6zM8 24h10v2h-10z"/><path fill="#03170D" d="M6 8h14v2h-14zM6 10h2v2h-2zM10 10h10v2h-10zM6 12h2v2h-2zM12 12h2v2h-2zM18 12h2v2h-2zM6 14h2v2h-2zM12 14h2v2h-2zM18 14h2v2h-2zM6 16h14v2h-14z"/><path fill="#0A3B1F" d="M8 10h2v2h-2z"/><path fill="#5B21B6" d="M4 18h2v2h-2zM20 18h2v2h-2zM6 24h2v2h-2zM18 24h2v2h-2z"/><path fill="#00E68A" d="M12 22h2v2h-2z"/><g class="w8"><path fill="#39FF14" d="M8 12h4v2h-4zM14 12h4v2h-4zM8 14h4v2h-4zM14 14h4v2h-4z"/></g><g class="w2"><path fill="#5B21B6" d="M6 28h4v2h-4zM16 28h4v2h-4z"/><path fill="#9D4EFF" d="M4 30h6v2h-6zM16 30h6v2h-6z"/></g><g class="w3"><path fill="#5B21B6" d="M4 28h4v2h-4zM18 28h4v2h-4z"/><path fill="#9D4EFF" d="M2 30h6v2h-6zM18 30h6v2h-6z"/></g><g class="w4"><path fill="#5B21B6" d="M8 28h4v2h-4zM14 28h4v2h-4z"/><path fill="#9D4EFF" d="M8 30h10v2h-10z"/></g><path fill="#5B21B6" d="M2 22h2v2h-2zM2 24h2v2h-2z"/><path fill="#C99EFF" d="M2 26h2v2h-2z"/><g class="w5"><path fill="#5B21B6" d="M22 22h2v2h-2zM22 24h2v2h-2z"/><path fill="#C99EFF" d="M22 26h2v2h-2z"/></g><g class="w6"><path fill="#C99EFF" d="M24 12h2v2h-2z"/><path fill="#5B21B6" d="M24 14h2v2h-2zM24 16h2v2h-2zM24 18h2v2h-2zM22 20h2v2h-2z"/></g><g class="w7"><path fill="#C99EFF" d="M24 14h2v2h-2zM22 16h2v2h-2z"/><path fill="#5B21B6" d="M24 16h2v2h-2zM22 18h2v2h-2zM22 20h2v2h-2z"/></g></g></g><g transform="translate(151.2 0)"><g class="wa" opacity="0"><rect x="-34" y="24" width="26" height="2" fill="#39FF14"/><rect x="-48" y="32" width="40" height="2" fill="#9D4EFF"/><rect x="-28" y="40" width="20" height="2" fill="#00E68A"/><rect x="-40" y="47" width="32" height="2" fill="#D04BFF"/></g></g><g transform="translate(164.2 50)"><g class="wb"><rect x="-1.25" y="-1.25" width="2.5" height="2.5" fill="#39FF14"/></g></g><g transform="translate(164.2 50)"><g class="wc"><rect x="-1.88" y="-1.88" width="3.76" height="3.76" fill="#9D4EFF"/></g></g><g transform="translate(164.2 50)"><g class="wd"><rect x="-1.93" y="-1.93" width="3.86" height="3.86" fill="#B4FFA3"/></g></g><g transform="translate(164.2 50)"><g class="we"><rect x="-1.84" y="-1.84" width="3.69" height="3.69" fill="#D04BFF"/></g></g><g transform="translate(164.2 50)"><g class="wf"><rect x="-1.24" y="-1.24" width="2.47" height="2.47" fill="#39FF14"/></g></g><g transform="translate(164.2 50)"><g class="wg"><rect x="-1.25" y="-1.25" width="2.5" height="2.5" fill="#9D4EFF"/></g></g><g transform="translate(164.2 50)"><g class="wh"><rect x="-1.12" y="-1.12" width="2.24" height="2.24" fill="#B4FFA3"/></g></g><g transform="translate(164.2 50)"><g class="wi"><rect x="-2.09" y="-2.09" width="4.18" height="4.18" fill="#D04BFF"/></g></g><g transform="translate(299.36 18) scale(0.008 -0.008)" fill="#C99EFF"><use href="#t0" x="0"/><use href="#t1" x="1010"/><use href="#t2" x="2020"/><use href="#t3" x="3030"/><use href="#t4" x="4040"/><use href="#t5" x="6060"/><use href="#t6" x="7070"/><use href="#t7" x="8080"/></g><g class="wj"><path d="M380 11l6 5l-6 5" fill="none" stroke="#39FF14" stroke-width="2"/></g><rect width="420" height="64" fill="url(#q5)" opacity="0.2"/><rect width="420" height="64" fill="url(#q6)"/></svg>